<?xml version="1.0" encoding="UTF-8"?><svg id="a" xmlns="http://www.w3.org/2000/svg" viewBox="0 0 436.37 221.05"><defs><style>.b{fill:none;stroke:#1a1f2e;stroke-linecap:square;stroke-miterlimit:10;stroke-width:3px;}.c{fill:#1a1f2e;}</style></defs><path class="c" d="M39.57,75.03c0-9.41,6.13-15.88,14.41-15.88,4.58,0,7.69,1.09,9.7,2.1v5.71h-.25c-2.27-4.71-4.96-7.23-9.54-7.23-5.59,0-9.12,6.47-9.12,15.25s3.15,15.16,9.16,15.16c3.32,0,5.59-1.51,5.59-3.95v-4.66c0-3.11-.17-4.75-2.6-4.92v-.25h8.65v.25c-1.26.17-1.34,1.81-1.34,4.92v6.17c-2.35,1.6-6.09,3.02-10.46,3.02-8.74,0-14.2-6.38-14.2-15.71Z"/><path class="c" d="M97.32,89.98v.25c-.67.08-2.77.17-4.03.17-3.02,0-3.78-1.34-8.99-12.77-.71-1.51-1.43-1.85-2.77-1.85h-1.72v8.99c0,3.11.17,5.21,3.02,5.21v.25h-10.75v-.25c2.86,0,3.02-2.1,3.02-5.21v-19.66c0-3.11-.17-5.21-3.02-5.21v-.25h11.34c6.72,0,10.42,3.11,10.42,7.98,0,4.12-3.07,6.72-6.85,7.73v.08c1.22.71,2.27,2.39,3.28,4.33,4.2,8.07,5.04,9.54,7.06,10.21ZM79.81,75.11h2.86c4.16,0,6.3-2.56,6.3-7.14s-1.97-7.65-6.26-7.65h-1.3c-1.01,0-1.6.5-1.6,1.51v13.27Z"/><path class="c" d="M125.21,82.8l-1.01,7.44h-21.55v-.25c2.86,0,3.02-2.1,3.02-5.21v-19.66c0-3.11-.17-5.21-3.02-5.21v-.25h20.92l.55,6.64h-.25c-2.31-4.91-3.87-5.96-8.49-5.96h-5v13.65h3.82c3.91,0,4.92-1.05,5.75-4.16h.25v9.33h-.25c-.84-3.11-1.85-4.5-5.75-4.5h-3.82v12.94c0,1.26.38,1.97,1.68,1.97h3.91c4.37,0,6.3-.92,8.99-6.76h.25Z"/><path class="c" d="M154.48,82.8l-1.01,7.44h-21.55v-.25c2.86,0,3.02-2.1,3.02-5.21v-19.66c0-3.11-.17-5.21-3.02-5.21v-.25h20.92l.55,6.64h-.25c-2.31-4.91-3.87-5.96-8.49-5.96h-5v13.65h3.82c3.91,0,4.92-1.05,5.75-4.16h.25v9.33h-.25c-.84-3.11-1.85-4.5-5.75-4.5h-3.82v12.94c0,1.26.38,1.97,1.68,1.97h3.91c4.37,0,6.3-.92,8.99-6.76h.25Z"/><path class="c" d="M179.22,59.65h7.9v.25c-2.86,0-3.28,3.19-3.28,7.73v23.1h-.25l-18.32-27.43v19.03c0,4.37.84,7.65,3.86,7.65v.25h-8.32v-.25c2.86,0,3.7-3.28,3.7-7.65v-17.81c0-3.02-1.43-4.28-3.7-4.62v-.25h7.56l14.7,22.22v-14.24c0-4.54-.67-7.73-3.86-7.73v-.25Z"/><path class="c" d="M224.54,59.65h7.06v.25c-2.18.34-3.32,2.94-4.87,8.11l-6.93,22.73h-.34l-7.02-21.47-7.77,21.47h-.34l-7.98-25.71c-1.09-3.44-2.06-4.96-3.82-5.12v-.25h10.75v.25c-2.35.17-3.15,1.55-2.39,3.99l5.8,19.03,5.38-14.87-1.01-3.02c-1.13-3.44-2.06-4.96-3.82-5.12v-.25h10.75v.25c-2.35.17-3.23,1.55-2.44,3.99l5.97,18.48,4.41-14.62c1.51-5.08,1.47-7.52-1.39-7.86v-.25Z"/><path class="c" d="M237.22,90.24v-.25c2.86,0,3.02-2.1,3.02-5.21v-19.66c0-3.11-.17-5.21-3.02-5.21v-.25h10.75v.25c-2.86,0-3.02,2.1-3.02,5.21v19.66c0,3.11.17,5.21,3.02,5.21v.25h-10.75Z"/><path class="c" d="M254.61,75.03c0-9.41,6.09-15.88,14.45-15.88,4.2,0,7.14,1.26,9.07,2.27l.25,5.8h-.25c-2.02-4.71-4.87-7.48-9.24-7.48-5.54,0-9.07,6.47-9.07,15.21s3.61,15.21,9.07,15.21c4.37,0,7.56-2.94,9.58-8.23h.25l-.76,6.72c-1.93.92-4.87,2.1-8.91,2.1-8.36,0-14.45-6.05-14.45-15.71Z"/><path class="c" d="M312.95,59.91c-2.86,0-3.02,2.1-3.02,5.21v19.66c0,3.11.17,5.21,3.02,5.21v.25h-10.75v-.25c2.86,0,3.03-2.1,3.03-5.21v-10h-11.76v10c0,3.11.17,5.21,3.02,5.21v.25h-10.75v-.25c2.86,0,3.02-2.1,3.02-5.21v-19.66c0-3.11-.17-5.21-3.02-5.21v-.25h10.75v.25c-2.86,0-3.02,2.1-3.02,5.21v8.91h11.76v-8.91c0-3.11-.17-5.21-3.03-5.21v-.25h10.75v.25Z"/><line class="b" x1="406.37" y1="189.38" x2="406.37" y2="30"/><line class="b" x1="41.12" y1="30" x2="406.37" y2="30"/><path class="c" d="M346.51,60.18l6.93-.25v.25c-5.29,1.85-8.07,4.75-8.07,8.65,0,3.32,2.23,6.26,6.05,6.26s5.42-3.02,7.14-6.55l1.05-2.14c1.39-2.81,3.36-5.84,8.07-5.84,5,0,8.7,3.61,8.7,8.78,0,2.31-.76,5.54-1.68,7.56h-5.46v-.25c4.54-1.89,6.55-4.37,6.55-7.56,0-3.4-2.27-5.59-5.67-5.59s-4.83,2.69-6.09,5.25l-1.05,2.14c-1.81,3.65-3.78,7.14-8.95,7.14s-9.24-3.95-9.24-9.83c0-2.44.71-6.05,1.72-8.02Z"/><path class="c" d="M369.24,107.98v-.25c4.91-2.31,5.96-3.78,5.96-7.81v-1.3h-24.45c-3.11,0-5.21.17-5.21,3.03h-.25v-10.75h.25c0,2.86,2.1,3.02,5.21,3.02h24.45v-1.3c0-3.99-1.05-5.5-5.96-7.81v-.25l6.64.59v22.26l-6.64.59Z"/><path class="c" d="M352.73,137.21l-7.44-1.01v-21.55h.25c0,2.86,2.1,3.02,5.21,3.02h19.66c3.11,0,5.21-.17,5.21-3.02h.25v20.92l-6.64.55v-.25c4.91-2.31,5.96-3.86,5.96-8.49v-5h-13.65v3.82c0,3.91,1.05,4.91,4.16,5.75v.25h-9.33v-.25c3.11-.84,4.5-1.85,4.5-5.75v-3.82h-12.94c-1.26,0-1.97.38-1.97,1.68v3.91c0,4.37.92,6.3,6.76,8.99v.25Z"/><path class="c" d="M375.88,155.27c0,6.72-3.53,10.46-8.49,10.46-5.96,0-9.49-3.57-9.49-9.79,0-1.81.46-3.4.8-4.29h-7.94c-3.11,0-5.21.34-5.21,3.19h-.25v-10.92h.25c0,2.86,2.1,3.02,5.21,3.02h19.66c3.11,0,5.21-.17,5.21-3.02h.25v11.34ZM367.14,160.85c4.2,0,8.07-1.85,8.07-6.39v-1.22c0-1.01-.5-1.6-1.51-1.6h-12.85c-1.34,0-1.93.84-1.93,3.11,0,3.36,2.86,6.09,8.23,6.09Z"/><path class="c" d="M346.51,173.2l6.93-.25v.25c-5.29,1.85-8.07,4.75-8.07,8.65,0,3.32,2.23,6.26,6.05,6.26s5.42-3.02,7.14-6.55l1.05-2.14c1.39-2.81,3.36-5.84,8.07-5.84,5,0,8.7,3.61,8.7,8.78,0,2.31-.76,5.54-1.68,7.56h-5.46v-.25c4.54-1.89,6.55-4.37,6.55-7.56,0-3.4-2.27-5.59-5.67-5.59s-4.83,2.69-6.09,5.25l-1.05,2.14c-1.81,3.66-3.78,7.14-8.95,7.14s-9.24-3.95-9.24-9.83c0-2.44.71-6.05,1.72-8.02Z"/></svg>